<svg width="807" height="807" viewBox="0 0 807 807" fill="none" xmlns="http://www.w3.org/2000/svg">
<circle cx="403.5" cy="403.5" r="403.5" fill="url(#paint0_radial_54_345)"/>
<path d="M498.95 403.12L467.95 420.62C464.45 421.619 459.95 422.12 466.95 414.12C473.95 406.12 500.95 396.12 500.95 397.12C500.95 397.92 499.617 401.453 498.95 403.12Z" fill="url(#paint1_linear_54_345)"/>
<path d="M660.95 305.12C660.95 305.12 651.45 298.12 649.95 297.12C649.45 296.62 649.45 299.12 649.95 302.62C649.95 302.62 667.95 405.12 668.95 498.12C668.963 499.305 660.082 518.127 659.95 515.62C658.95 513.62 649.95 380.12 629.45 265.12C630.25 260.32 633.45 252.12 637.45 252.12C649.95 270.12 657.95 286.12 660.95 305.12Z" fill="url(#paint2_linear_54_345)"/>
<path d="M415.45 478.62C414.65 479.42 416.784 484.62 417.95 487.12C425.95 505.12 447.45 527.62 424.95 563.12C406.95 591.52 347.45 618.953 319.95 629.12C221.95 650.72 214.95 589.12 211.45 546.62C212.617 544.953 216.25 541.02 221.45 538.62C214.45 584.62 248.45 623.62 314.95 606.62C368.15 593.02 410.45 557.62 424.95 541.62C422.45 537.12 395.95 485.12 392.45 469.12C393.45 454.62 397.95 447.62 401.95 449.12C428.95 477.62 431.95 483.12 427.45 483.62C422.95 484.12 416.45 477.62 415.45 478.62Z" fill="url(#paint3_linear_54_345)"/>
<path d="M456.95 286.12C456.95 286.12 447.45 279.12 445.95 278.12C445.45 277.62 445.45 280.12 445.95 283.62C445.95 283.62 470.95 435.62 471.95 528.62C468.95 545.12 460.45 562.12 460.45 553.12C457.95 464.12 445.45 383.62 425.45 246.12C426.25 241.32 429.45 233.12 433.45 233.12C445.95 251.12 453.95 267.12 456.95 286.12Z" fill="url(#paint4_linear_54_345)"/>
<path d="M499.95 192.12C499.95 192.12 490.451 185.12 488.951 184.12C488.451 183.62 488.451 186.12 488.951 189.62C488.951 189.62 502.45 285.62 514.95 388.12C522.95 418.453 521.051 476.52 449.451 466.12C410.451 452.12 392.95 413.62 338.95 378.12C362.784 402.12 395.55 456.22 335.95 480.62C237.95 509.12 228.95 533.62 201.45 555.12C181.565 581.965 114.023 547.502 158.951 461.12L167.451 462.62C136.451 505.12 150.15 601.82 222.95 510.62C258.45 480.62 312.95 473.62 360.95 443.12C347.95 404.62 321.651 388.22 296.451 364.62C216.951 302.62 183.051 280.22 173.451 264.62C172.951 257.953 172.951 241.52 176.951 229.12C181.951 213.62 379.451 138.62 427.951 133.12C476.451 127.62 450.951 180.62 389.451 245.62C378.951 245.62 410.451 203.12 437.951 175.12C473.451 113.12 224.451 214.62 183.951 243.12C241.784 283.393 368.551 374.276 412.951 415.62C468.451 467.298 505.95 436.62 505.95 430.12C504.95 428.12 488.951 267.12 468.451 152.12C469.251 147.32 472.451 139.12 476.451 139.12C488.951 157.12 496.95 173.12 499.95 192.12Z" fill="url(#paint5_linear_54_345)"/>
<path d="M555.95 207.12C555.95 207.12 546.45 200.12 544.95 199.12C544.45 198.62 544.45 201.12 544.95 204.62C544.95 204.62 563.45 282.12 564.45 375.12C564.821 390.72 559.605 400.62 556.95 403.62C555.95 401.62 544.95 282.12 524.45 167.12C525.25 162.32 528.45 154.12 532.45 154.12C544.95 172.12 552.95 188.12 555.95 207.12Z" fill="url(#paint6_linear_54_345)"/>
<path fill-rule="evenodd" clip-rule="evenodd" d="M599.95 244.12C601.45 245.12 610.95 252.12 610.95 252.12C607.95 233.12 599.95 217.12 587.45 199.12C583.45 199.12 580.25 207.32 579.45 212.12C595.426 301.741 604.418 402.599 608.082 443.696C609.119 455.333 609.73 462.178 609.95 462.62L621.45 551.12C602.45 578.62 559.45 569.62 554.45 552.62C573.95 544.12 599.45 480.62 555.95 462.62C519.212 455.189 527.458 513.873 530.327 534.288C530.933 538.602 531.299 541.207 530.95 541.12C529.35 540.72 478.284 565.953 452.95 578.62C438.291 585.592 422.928 603.815 407.753 621.814C380.488 654.155 353.83 685.775 332.95 650.12C319.95 614.12 339.45 575.12 356.45 550.12C352.95 541.12 337.45 531.62 335.45 531.62C333.45 531.62 322.95 543.12 323.95 548.62C324.75 553.02 333.284 560.453 337.45 563.62C321.45 588.62 318.95 609.62 320.45 630.12C327.45 702.62 383.95 695.12 411.95 643.12C442.04 596.005 495.644 577.733 524.351 567.947C531.898 565.375 537.724 563.389 540.95 561.62C549.95 583.12 569.95 598.62 602.45 586.62C628.45 577.02 632.617 543.62 631.45 528.12C615.45 377.12 599.95 249.62 599.95 249.62C599.45 246.12 599.45 243.62 599.95 244.12ZM545.95 532.62C538.117 519.453 527.45 491.12 547.45 483.12C558.45 481.12 570.117 501.786 568.95 516.12C565.784 520.453 556.75 529.82 545.95 532.62Z" fill="url(#paint7_linear_54_345)"/>
<path d="M577.451 440.12C575.851 440.92 565.784 430.453 560.951 425.12C556.784 429.786 548.251 439.02 547.451 438.62C546.451 438.12 526.951 423.62 527.951 420.12C528.951 416.62 538.951 404.12 539.951 403.12C540.751 402.32 553.617 412.453 559.951 417.62C563.55 412.02 567.451 405.12 572.451 403.12C573.451 403.12 586.951 412.12 591.951 425.12C584.951 438.12 579.451 439.12 577.451 440.12Z" fill="url(#paint8_linear_54_345)"/>
<path d="M308.988 449.164C307.388 449.964 297.321 439.498 292.488 434.164C288.321 438.831 279.788 448.064 278.988 447.664C277.988 447.164 258.488 432.664 259.488 429.164C260.488 425.664 270.488 413.164 271.488 412.164C272.288 411.364 285.154 421.498 291.488 426.664C295.088 421.064 298.988 414.164 303.988 412.164C304.988 412.164 318.488 421.164 323.488 434.164C316.488 447.164 310.988 448.164 308.988 449.164Z" fill="url(#paint9_linear_54_345)"/>
<path d="M359.451 245.12C365.051 305.12 393.117 330.12 406.451 335.12C408.95 343.62 409.95 343.12 406.451 361.62C367.251 324.82 315.45 348.953 294.45 365.62C261.95 380.62 199.95 464.62 167.451 462.12C125.45 456.12 103.45 412.62 145.951 347.12C132.351 324.32 158.617 284.286 173.451 267.12C174.617 265.453 177.351 264.32 178.951 273.12C151.751 303.52 154.951 323.786 159.951 330.12C165.451 335.12 172.451 320.12 176.951 322.12C176.951 335.72 160.617 351.786 151.951 357.62C115.451 411.12 135.451 452.62 167.451 439.12C244.951 395.62 281.451 313.12 359.451 318.62C345.951 260.12 335.951 223.12 350.951 208.12C354.951 213.32 365.951 238.286 370.951 250.12C369.118 250.286 364.251 249.52 359.451 245.12Z" fill="url(#paint10_linear_54_345)"/>
<path fill-rule="evenodd" clip-rule="evenodd" d="M219.95 352.12L223.95 355.62L228.45 360.119C229.617 359.119 231.75 355.92 230.95 351.12C228.45 346.62 224.95 342.453 222.45 341.119C230.95 286.62 184.45 333.62 211.95 348.62C205.117 358.786 184.25 385.22 155.45 409.62C155.45 420.12 211.45 371.119 219.95 352.12ZM215.95 336.62C214.284 336.12 210.95 334.42 210.95 331.62C210.95 328.12 214.95 328.62 216.95 330.12C218.95 331.62 218.95 338.159 215.95 336.62Z" fill="url(#paint11_linear_54_345)"/>
<path fill-rule="evenodd" clip-rule="evenodd" d="M577.95 308.768L581.95 312.268L586.45 316.768C587.617 315.768 589.75 312.568 588.95 307.768C586.45 303.268 582.95 299.101 580.45 297.768C588.95 243.268 542.45 290.268 569.95 305.268C563.117 315.434 550.25 326.72 521.45 351.12C521.45 361.62 546.95 343.12 577.95 308.768ZM573.95 293.268C572.284 292.768 568.95 291.068 568.95 288.268C568.95 284.768 572.95 285.268 574.95 286.768C576.95 288.268 576.95 294.807 573.95 293.268Z" fill="url(#paint12_linear_54_345)"/>
<path fill-rule="evenodd" clip-rule="evenodd" d="M381.95 504.768L384.45 507.62C387.083 510.87 390.623 507.158 389.95 503.12C389.08 501.553 388.452 500.105 387.898 498.827C386.86 496.435 386.08 494.637 384.45 493.768C392.95 439.268 346.45 486.268 373.95 501.268C368.578 506.6 364.671 510.616 361.27 514.11C352.012 523.624 346.514 529.274 325.45 547.12C325.45 557.62 350.95 539.12 381.95 504.768ZM377.95 489.268C376.284 488.768 372.95 487.068 372.95 484.268C372.95 480.768 376.95 481.268 378.95 482.768C380.95 484.268 380.95 490.807 377.95 489.268Z" fill="url(#paint13_linear_54_345)"/>
<path d="M682.95 387.119C684.15 378.319 679.784 383.453 677.45 387.119C669.45 384.62 676.45 345.62 672.45 349.119C661.45 389.119 671.784 397.453 676.45 397.119C678.117 397.453 681.75 395.919 682.95 387.119Z" fill="url(#paint14_linear_54_345)"/>
<path d="M589.842 383.342C591.042 374.542 586.676 379.675 584.342 383.342C576.342 380.842 583.342 341.842 579.342 345.342C568.342 385.342 575.951 395.62 583.342 393.342C585.009 393.675 588.642 392.142 589.842 383.342Z" fill="url(#paint15_linear_54_345)"/>
<path d="M563.474 629.342C564.674 620.542 560.307 625.675 557.974 629.342C549.974 626.842 556.974 587.842 552.974 591.342C541.974 631.342 549.582 641.62 556.974 639.342C558.641 639.675 562.274 638.142 563.474 629.342Z" fill="url(#paint16_linear_54_345)"/>
<path d="M428.474 395.342C429.674 386.542 425.307 391.675 422.974 395.342C414.974 392.842 423.45 358.12 419.45 361.62C406.45 389.62 412.45 400.62 417.45 403.12C419.33 403.936 427.274 404.142 428.474 395.342Z" fill="url(#paint17_linear_54_345)"/>
<path d="M308.304 661.089C309.504 652.289 305.137 657.422 302.804 661.089C294.804 658.589 303.281 623.867 299.281 627.367C286.281 655.367 292.281 666.367 297.281 668.867C299.16 669.683 307.104 669.889 308.304 661.089Z" fill="url(#paint18_linear_54_345)"/>
<path d="M208.304 594.089C209.504 585.289 204.784 587.953 202.45 591.62C194.45 589.12 204.45 560.62 200.45 564.12C187.45 592.12 192.281 599.367 197.281 601.867C199.16 602.683 207.104 602.889 208.304 594.089Z" fill="url(#paint19_linear_54_345)"/>
<path d="M193.653 510.387C194.853 501.587 190.133 504.25 187.799 507.917C179.799 505.417 189.95 472.12 185.95 475.62C172.95 503.62 177.63 515.664 182.63 518.164C184.509 518.981 192.453 519.187 193.653 510.387Z" fill="url(#paint20_linear_54_345)"/>
<path d="M483.988 346.324C483.091 337.488 480.05 343.502 478.641 347.614C470.278 347.059 472.018 308.279 468.95 312.619C458.95 348.62 471.888 364.169 480.45 358.62C480.45 358.62 484.884 355.161 483.988 346.324Z" fill="url(#paint21_linear_54_345)"/>
<path d="M526.75 256.672C525.854 247.836 522.812 253.85 521.404 257.962C513.041 257.407 515.018 223.279 511.95 227.62C501.95 263.62 514.651 274.517 523.213 268.967C523.213 268.967 527.647 265.508 526.75 256.672Z" fill="url(#paint22_linear_54_345)"/>
<path d="M606.751 529.672C605.854 520.836 602.813 526.85 601.404 530.962C593.041 530.407 600.019 493.279 596.95 497.62C586.45 531.62 586.95 545.62 603.213 541.967C603.213 541.967 607.647 538.508 606.751 529.672Z" fill="url(#paint23_linear_54_345)"/>
<path d="M390.237 207.935C389.34 199.098 386.299 205.112 384.89 209.224C376.527 208.669 383.505 171.542 380.437 175.882C369.937 209.882 370.437 223.882 386.699 220.23C386.699 220.23 391.133 216.771 390.237 207.935Z" fill="url(#paint24_linear_54_345)"/>
<path d="M303.237 241.935C302.34 233.098 299.299 239.112 297.89 243.224C289.527 242.669 296.505 205.542 293.437 209.882C282.937 243.882 283.437 257.882 299.699 254.23C299.699 254.23 304.133 250.771 303.237 241.935Z" fill="url(#paint25_linear_54_345)"/>
<path d="M253.237 257.935C252.34 249.098 249.299 255.112 247.89 259.224C239.527 258.669 247.018 217.279 243.95 221.62C233.45 255.62 233.437 273.882 249.699 270.23C249.699 270.23 254.133 266.771 253.237 257.935Z" fill="url(#paint26_linear_54_345)"/>
<path d="M494.45 622.62C499.284 631.453 508.45 647.532 508.45 641.12C508.45 587.62 543.451 622.62 523.451 626.62C508.45 607.12 515.95 649.62 510.951 657.119C508.95 660.719 507.45 660.286 506.95 659.62C501.45 650.12 487.45 638.62 485.45 637.12C470.95 621.12 485.617 614.62 494.45 622.62Z" fill="url(#paint27_linear_54_345)"/>
<path d="M279.95 562.62C284.45 566.695 293.31 584.528 293.071 578.12C290.95 521.12 318.95 557.62 306.95 561.62C291.95 542.12 302.071 582.05 297.071 589.55C295.071 593.15 293.571 592.717 293.071 592.05C287.571 582.55 274.95 575.05 272.95 573.55C263.95 563.62 270.95 558.62 279.95 562.62Z" fill="url(#paint28_linear_54_345)"/>
<path d="M215.95 451.62C220.45 455.695 234.996 479.211 234.757 472.803C232.636 415.803 260.636 452.303 248.636 456.303C234.42 437.822 240.95 493.12 233.95 488.62C228.45 479.12 225.45 470.12 211.45 468.62C206.45 462.12 208.45 459.62 209.357 451.62C211 450.573 213.277 450.431 215.95 451.62Z" fill="url(#paint29_linear_54_345)"/>
<path d="M390.212 277.62C394.712 281.695 409.258 305.211 409.019 298.803C406.898 241.803 434.898 278.303 422.898 282.303C408.682 263.822 415.212 319.12 408.212 314.62C402.712 305.12 399.712 296.12 385.712 294.62C380.712 288.12 382.712 285.62 383.619 277.62C385.262 276.573 387.539 276.431 390.212 277.62Z" fill="url(#paint30_linear_54_345)"/>
<path d="M289.169 265.87C295.383 270.819 315.469 299.377 315.14 291.595C312.211 222.376 350.877 266.701 334.306 271.558C314.675 249.116 323.692 316.266 314.026 310.802C306.431 299.265 302.288 288.336 282.955 286.515C276.05 278.621 278.812 275.585 280.064 265.87C282.333 264.599 285.477 264.427 289.169 265.87Z" fill="url(#paint31_linear_54_345)"/>
<path d="M253.95 549.12C261.15 555.12 260.284 559.953 258.95 561.62C253.284 561.953 243.55 558.52 249.95 542.12C253.45 530.62 317.45 510.12 335.45 502.12C337.582 501.172 331.617 510.62 328.95 513.62C318.95 522.62 257.95 537.62 253.95 549.12Z" fill="url(#paint32_linear_54_345)"/>
<path fill-rule="evenodd" clip-rule="evenodd" d="M378.95 521.62C387.45 521.953 403.25 527.02 398.45 544.62C389.95 560.62 376.95 555.12 374.95 551.62C373.784 547.286 372.95 535.22 378.95 521.62ZM380.95 531.62C383.117 531.62 388.55 533.22 392.95 539.62C392.95 545.62 380.95 545.62 379.95 545.12C378.784 543.286 377.35 538.02 380.95 531.62Z" fill="url(#paint33_linear_54_345)"/>
<path fill-rule="evenodd" clip-rule="evenodd" d="M450.28 192.12C458.78 192.453 474.58 197.52 469.78 215.12C461.28 231.12 448.28 225.62 446.28 222.12C445.113 217.786 444.28 205.72 450.28 192.12ZM452.28 202.12C454.446 202.12 459.88 203.72 464.28 210.12C464.28 216.12 452.28 216.12 451.28 215.62C450.113 213.786 448.68 208.52 452.28 202.12Z" fill="url(#paint34_linear_54_345)"/>
<path d="M490.451 506.12C496.451 515.12 509.451 508.62 512.451 508.62C521.951 509.12 502.951 522.12 491.451 528.12C479.951 534.12 483.951 528.12 483.951 527.12C483.951 526.32 488.284 521.12 490.451 518.62C489.951 518.12 482.951 513.12 483.951 506.12C488.451 496.12 498.451 494.12 500.951 494.12C503.451 494.12 502.451 504.12 501.451 504.12C500.651 504.12 499.451 503.453 498.951 503.12C494.117 501.12 490.451 500.12 490.451 506.12Z" fill="url(#paint35_linear_54_345)"/>
<path d="M357.45 123.12C357.05 125.12 351.284 130.62 348.45 133.12L245.45 174.62C235.85 175.42 244.784 166.62 250.45 162.12C255.45 158.12 357.95 120.62 357.45 123.12Z" fill="url(#paint36_linear_54_345)"/>
<defs>
<radialGradient id="paint0_radial_54_345" cx="0" cy="0" r="1" gradientUnits="userSpaceOnUse" gradientTransform="translate(403.5 403.5) rotate(90) scale(403.5)">
<stop stop-color="#1CCFBA" stop-opacity="0.67"/>
<stop offset="1" stop-color="white" stop-opacity="0"/>
</radialGradient>
<linearGradient id="paint1_linear_54_345" x1="482.108" y1="397.05" x2="482.108" y2="421.169" gradientUnits="userSpaceOnUse">
<stop stop-color="#F4A824"/>
<stop offset="0.5" stop-color="#FFCD73"/>
<stop offset="1" stop-color="#F4A824"/>
</linearGradient>
<linearGradient id="paint2_linear_54_345" x1="649.2" y1="252.12" x2="649.2" y2="515.849" gradientUnits="userSpaceOnUse">
<stop stop-color="#F4A824"/>
<stop offset="0.5" stop-color="#FFCD73"/>
<stop offset="1" stop-color="#F4A824"/>
</linearGradient>
<linearGradient id="paint3_linear_54_345" x1="323.185" y1="448.92" x2="323.185" y2="633.581" gradientUnits="userSpaceOnUse">
<stop stop-color="#F4A824"/>
<stop offset="0.5" stop-color="#FFCD73"/>
<stop offset="1" stop-color="#F4A824"/>
</linearGradient>
<linearGradient id="paint4_linear_54_345" x1="448.7" y1="233.12" x2="448.7" y2="555.616" gradientUnits="userSpaceOnUse">
<stop stop-color="#F4A824"/>
<stop offset="0.5" stop-color="#FFCD73"/>
<stop offset="1" stop-color="#F4A824"/>
</linearGradient>
<linearGradient id="paint5_linear_54_345" x1="330.999" y1="132.727" x2="330.999" y2="564.037" gradientUnits="userSpaceOnUse">
<stop stop-color="#F4A824"/>
<stop offset="0.5" stop-color="#FFCD73"/>
<stop offset="1" stop-color="#F4A824"/>
</linearGradient>
<linearGradient id="paint6_linear_54_345" x1="544.46" y1="154.12" x2="544.46" y2="403.62" gradientUnits="userSpaceOnUse">
<stop stop-color="#F4A824"/>
<stop offset="0.5" stop-color="#FFCD73"/>
<stop offset="1" stop-color="#F4A824"/>
</linearGradient>
<linearGradient id="paint7_linear_54_345" x1="475.85" y1="199.12" x2="475.85" y2="683.33" gradientUnits="userSpaceOnUse">
<stop stop-color="#F4A824"/>
<stop offset="0.5" stop-color="#FFCD73"/>
<stop offset="1" stop-color="#F4A824"/>
</linearGradient>
<linearGradient id="paint8_linear_54_345" x1="559.932" y1="403.075" x2="559.932" y2="440.163" gradientUnits="userSpaceOnUse">
<stop stop-color="#F4A824"/>
<stop offset="0.5" stop-color="#FFCD73"/>
<stop offset="1" stop-color="#F4A824"/>
</linearGradient>
<linearGradient id="paint9_linear_54_345" x1="291.469" y1="412.12" x2="291.469" y2="449.208" gradientUnits="userSpaceOnUse">
<stop stop-color="#F4A824"/>
<stop offset="0.5" stop-color="#FFCD73"/>
<stop offset="1" stop-color="#F4A824"/>
</linearGradient>
<linearGradient id="paint10_linear_54_345" x1="265.858" y1="208.12" x2="265.858" y2="462.174" gradientUnits="userSpaceOnUse">
<stop stop-color="#F4A824"/>
<stop offset="0.5" stop-color="#FFCD73"/>
<stop offset="1" stop-color="#F4A824"/>
</linearGradient>
<linearGradient id="paint11_linear_54_345" x1="193.288" y1="315.471" x2="193.288" y2="411.078" gradientUnits="userSpaceOnUse">
<stop stop-color="#F4A824"/>
<stop offset="0.5" stop-color="#FFCD73"/>
<stop offset="1" stop-color="#F4A824"/>
</linearGradient>
<linearGradient id="paint12_linear_54_345" x1="555.288" y1="272.12" x2="555.288" y2="354.054" gradientUnits="userSpaceOnUse">
<stop stop-color="#F4A824"/>
<stop offset="0.5" stop-color="#FFCD73"/>
<stop offset="1" stop-color="#F4A824"/>
</linearGradient>
<linearGradient id="paint13_linear_54_345" x1="357.742" y1="468.12" x2="357.742" y2="550.054" gradientUnits="userSpaceOnUse">
<stop stop-color="#F4A824"/>
<stop offset="0.5" stop-color="#FFCD73"/>
<stop offset="1" stop-color="#F4A824"/>
</linearGradient>
<linearGradient id="paint14_linear_54_345" x1="675.357" y1="348.897" x2="675.357" y2="397.161" gradientUnits="userSpaceOnUse">
<stop stop-color="#F4A824"/>
<stop offset="0.5" stop-color="#FFCD73"/>
<stop offset="1" stop-color="#F4A824"/>
</linearGradient>
<linearGradient id="paint15_linear_54_345" x1="581.933" y1="345.12" x2="581.933" y2="393.64" gradientUnits="userSpaceOnUse">
<stop stop-color="#F4A824"/>
<stop offset="0.5" stop-color="#FFCD73"/>
<stop offset="1" stop-color="#F4A824"/>
</linearGradient>
<linearGradient id="paint16_linear_54_345" x1="555.565" y1="591.12" x2="555.565" y2="639.64" gradientUnits="userSpaceOnUse">
<stop stop-color="#F4A824"/>
<stop offset="0.5" stop-color="#FFCD73"/>
<stop offset="1" stop-color="#F4A824"/>
</linearGradient>
<linearGradient id="paint17_linear_54_345" x1="420.149" y1="361.372" x2="420.149" y2="403.486" gradientUnits="userSpaceOnUse">
<stop stop-color="#F4A824"/>
<stop offset="0.5" stop-color="#FFCD73"/>
<stop offset="1" stop-color="#F4A824"/>
</linearGradient>
<linearGradient id="paint18_linear_54_345" x1="299.98" y1="627.12" x2="299.98" y2="669.234" gradientUnits="userSpaceOnUse">
<stop stop-color="#F4A824"/>
<stop offset="0.5" stop-color="#FFCD73"/>
<stop offset="1" stop-color="#F4A824"/>
</linearGradient>
<linearGradient id="paint19_linear_54_345" x1="200.299" y1="563.822" x2="200.299" y2="602.234" gradientUnits="userSpaceOnUse">
<stop stop-color="#F4A824"/>
<stop offset="0.5" stop-color="#FFCD73"/>
<stop offset="1" stop-color="#F4A824"/>
</linearGradient>
<linearGradient id="paint20_linear_54_345" x1="185.688" y1="475.362" x2="185.688" y2="518.531" gradientUnits="userSpaceOnUse">
<stop stop-color="#F4A824"/>
<stop offset="0.5" stop-color="#FFCD73"/>
<stop offset="1" stop-color="#F4A824"/>
</linearGradient>
<linearGradient id="paint21_linear_54_345" x1="467.156" y1="312.814" x2="478.42" y2="359.524" gradientUnits="userSpaceOnUse">
<stop stop-color="#F4A824"/>
<stop offset="0.5" stop-color="#FFCD73"/>
<stop offset="1" stop-color="#F4A824"/>
</linearGradient>
<linearGradient id="paint22_linear_54_345" x1="510.724" y1="227.646" x2="520.945" y2="270.034" gradientUnits="userSpaceOnUse">
<stop stop-color="#F4A824"/>
<stop offset="0.5" stop-color="#FFCD73"/>
<stop offset="1" stop-color="#F4A824"/>
</linearGradient>
<linearGradient id="paint23_linear_54_345" x1="590.506" y1="498.917" x2="601.015" y2="542.497" gradientUnits="userSpaceOnUse">
<stop stop-color="#F4A824"/>
<stop offset="0.5" stop-color="#FFCD73"/>
<stop offset="1" stop-color="#F4A824"/>
</linearGradient>
<linearGradient id="paint24_linear_54_345" x1="373.992" y1="177.179" x2="384.501" y2="220.76" gradientUnits="userSpaceOnUse">
<stop stop-color="#F4A824"/>
<stop offset="0.5" stop-color="#FFCD73"/>
<stop offset="1" stop-color="#F4A824"/>
</linearGradient>
<linearGradient id="paint25_linear_54_345" x1="286.992" y1="211.179" x2="297.501" y2="254.76" gradientUnits="userSpaceOnUse">
<stop stop-color="#F4A824"/>
<stop offset="0.5" stop-color="#FFCD73"/>
<stop offset="1" stop-color="#F4A824"/>
</linearGradient>
<linearGradient id="paint26_linear_54_345" x1="236.353" y1="223.22" x2="247.799" y2="270.688" gradientUnits="userSpaceOnUse">
<stop stop-color="#F4A824"/>
<stop offset="0.5" stop-color="#FFCD73"/>
<stop offset="1" stop-color="#F4A824"/>
</linearGradient>
<linearGradient id="paint27_linear_54_345" x1="504.476" y1="611.689" x2="504.476" y2="660.072" gradientUnits="userSpaceOnUse">
<stop stop-color="#F4A824"/>
<stop offset="0.5" stop-color="#FFCD73"/>
<stop offset="1" stop-color="#F4A824"/>
</linearGradient>
<linearGradient id="paint28_linear_54_345" x1="289.358" y1="546.436" x2="289.358" y2="592.502" gradientUnits="userSpaceOnUse">
<stop stop-color="#F4A824"/>
<stop offset="0.5" stop-color="#FFCD73"/>
<stop offset="1" stop-color="#F4A824"/>
</linearGradient>
<linearGradient id="paint29_linear_54_345" x1="229.913" y1="441.12" x2="229.913" y2="488.881" gradientUnits="userSpaceOnUse">
<stop stop-color="#F4A824"/>
<stop offset="0.5" stop-color="#FFCD73"/>
<stop offset="1" stop-color="#F4A824"/>
</linearGradient>
<linearGradient id="paint30_linear_54_345" x1="404.175" y1="267.12" x2="404.175" y2="314.881" gradientUnits="userSpaceOnUse">
<stop stop-color="#F4A824"/>
<stop offset="0.5" stop-color="#FFCD73"/>
<stop offset="1" stop-color="#F4A824"/>
</linearGradient>
<linearGradient id="paint31_linear_54_345" x1="308.45" y1="253.12" x2="308.45" y2="311.12" gradientUnits="userSpaceOnUse">
<stop stop-color="#F4A824"/>
<stop offset="0.5" stop-color="#FFCD73"/>
<stop offset="1" stop-color="#F4A824"/>
</linearGradient>
<linearGradient id="paint32_linear_54_345" x1="291.875" y1="502.053" x2="291.875" y2="561.641" gradientUnits="userSpaceOnUse">
<stop stop-color="#F4A824"/>
<stop offset="0.5" stop-color="#FFCD73"/>
<stop offset="1" stop-color="#F4A824"/>
</linearGradient>
<linearGradient id="paint33_linear_54_345" x1="386.73" y1="521.62" x2="386.73" y2="555.443" gradientUnits="userSpaceOnUse">
<stop stop-color="#F4A824"/>
<stop offset="0.5" stop-color="#FFCD73"/>
<stop offset="1" stop-color="#F4A824"/>
</linearGradient>
<linearGradient id="paint34_linear_54_345" x1="458.06" y1="192.12" x2="458.06" y2="225.943" gradientUnits="userSpaceOnUse">
<stop stop-color="#F4A824"/>
<stop offset="0.5" stop-color="#FFCD73"/>
<stop offset="1" stop-color="#F4A824"/>
</linearGradient>
<linearGradient id="paint35_linear_54_345" x1="499.152" y1="494.12" x2="499.152" y2="530.751" gradientUnits="userSpaceOnUse">
<stop stop-color="#F4A824"/>
<stop offset="0.5" stop-color="#FFCD73"/>
<stop offset="1" stop-color="#F4A824"/>
</linearGradient>
<linearGradient id="paint36_linear_54_345" x1="299.333" y1="123" x2="299.333" y2="174.671" gradientUnits="userSpaceOnUse">
<stop stop-color="#F4A824"/>
<stop offset="0.5" stop-color="#FFCD73"/>
<stop offset="1" stop-color="#F4A824"/>
</linearGradient>
</defs>
</svg>
